<svg id="svg" version="1.1" xmlns="http://www.w3.org/2000/svg" xmlns:xlink="http://www.w3.org/1999/xlink" width="400" height="400" viewBox="0, 0, 400,400"><g id="svgg"><path id="path0" d="M237.150 137.974 C 237.123 138.208,237.078 138.587,237.050 138.815 C 237.023 139.043,236.816 139.358,236.592 139.515 C 236.367 139.672,235.966 140.295,235.700 140.900 C 235.435 141.505,235.023 142.000,234.785 142.000 C 234.547 142.000,234.447 142.153,234.563 142.339 C 234.678 142.526,234.374 143.108,233.886 143.632 C 233.399 144.156,233.050 144.739,233.111 144.927 C 233.173 145.115,232.858 145.364,232.411 145.481 C 231.700 145.667,231.396 146.311,231.553 147.300 C 231.579 147.465,231.433 147.600,231.229 147.600 C 231.024 147.600,230.574 147.883,230.229 148.229 C 229.833 148.624,229.600 148.682,229.600 148.384 C 229.600 148.124,229.226 148.336,228.770 148.856 C 228.313 149.375,228.064 149.530,228.217 149.200 C 228.369 148.870,228.047 149.095,227.500 149.700 C 226.954 150.305,226.292 150.800,226.030 150.800 C 225.767 150.800,225.645 150.950,225.759 151.133 C 225.872 151.317,225.748 151.485,225.482 151.508 C 224.184 151.620,222.888 151.942,221.800 152.423 C 221.140 152.715,220.420 152.965,220.200 152.977 C 219.980 152.990,219.620 153.227,219.400 153.505 C 219.180 153.782,218.040 154.076,216.867 154.158 C 215.694 154.239,214.533 154.507,214.287 154.753 C 213.967 155.073,206.473 155.200,187.891 155.200 L 161.943 155.200 158.648 158.500 C 155.959 161.192,155.221 162.205,154.640 164.000 C 152.065 171.953,147.372 176.595,138.639 179.829 C 136.637 180.571,132.748 183.828,131.090 186.152 C 130.226 187.364,130.192 187.803,129.919 201.200 C 129.764 208.790,129.622 215.495,129.603 216.100 C 129.583 216.705,129.395 217.200,129.184 217.200 C 128.973 217.200,128.800 217.560,128.800 218.000 C 128.800 218.440,128.632 218.800,128.426 218.800 C 128.221 218.800,128.140 219.279,128.246 219.864 C 128.352 220.450,128.246 221.048,128.010 221.194 C 127.774 221.340,127.509 221.833,127.421 222.290 C 127.333 222.748,126.977 223.670,126.631 224.341 C 126.284 225.012,125.986 225.974,125.968 226.480 C 125.951 226.986,125.846 227.175,125.735 226.900 C 125.624 226.625,125.349 226.400,125.124 226.400 C 124.899 226.400,124.813 226.657,124.933 226.971 C 125.054 227.285,124.895 227.755,124.581 228.016 C 124.266 228.277,124.106 228.648,124.225 228.841 C 124.344 229.033,124.133 229.072,123.755 228.927 C 123.323 228.762,123.166 228.821,123.330 229.087 C 123.474 229.319,123.323 229.732,122.996 230.004 C 122.668 230.276,122.400 230.746,122.400 231.049 C 122.400 231.352,122.122 231.600,121.782 231.600 C 121.442 231.600,120.748 232.005,120.241 232.500 C 118.580 234.119,117.201 235.200,116.797 235.200 C 116.579 235.200,116.400 235.380,116.400 235.600 C 116.400 235.820,116.145 236.000,115.833 236.000 C 115.522 236.000,115.162 236.225,115.033 236.500 C 114.857 236.878,114.745 236.884,114.575 236.525 C 114.419 236.196,114.106 236.294,113.559 236.841 C 112.317 238.083,112.546 306.892,113.800 309.400 C 114.907 311.615,116.480 311.931,128.038 312.257 L 137.476 312.524 137.743 321.962 C 138.069 333.520,138.385 335.093,140.600 336.200 C 142.468 337.134,324.509 337.718,331.395 336.812 C 336.801 336.101,337.178 335.057,337.192 320.764 L 337.200 312.528 346.900 312.254 C 360.408 311.873,361.202 311.589,361.870 306.913 C 362.519 302.369,362.249 168.860,361.586 166.600 C 360.609 163.267,359.870 163.067,347.600 162.812 L 337.400 162.600 337.188 152.400 C 336.933 140.122,336.732 139.380,333.400 138.429 C 330.835 137.697,237.234 137.254,237.150 137.974 " stroke="none" fill="#acdce4" fill-rule="evenodd"></path><path id="path1" d="M90.542 37.881 C 87.858 38.229,87.815 38.425,87.668 50.984 L 87.536 62.284 76.281 62.575 C 70.091 62.734,64.709 63.035,64.322 63.242 C 63.009 63.944,62.865 65.016,62.575 76.281 L 62.284 87.536 50.953 87.668 C 39.778 87.798,39.609 87.813,38.711 88.711 L 37.800 89.622 37.800 136.911 C 37.800 162.920,37.940 184.701,38.111 185.314 C 38.578 186.984,39.349 187.107,51.280 187.422 L 62.288 187.712 62.578 198.720 C 62.877 210.077,63.030 211.257,64.269 211.826 C 64.671 212.011,70.070 212.230,76.268 212.313 L 87.536 212.464 87.687 223.732 C 87.770 229.930,87.989 235.329,88.174 235.731 C 88.743 236.971,89.923 237.123,101.303 237.423 L 112.333 237.713 113.395 236.568 C 116.996 232.682,120.566 226.041,123.126 218.463 L 124.567 214.200 124.784 200.580 L 125.000 186.960 126.748 184.279 C 128.825 181.091,132.178 177.914,135.437 176.044 C 140.940 172.886,142.102 172.074,144.566 169.665 C 146.382 167.892,147.971 165.730,149.860 162.465 C 153.004 157.033,155.952 153.740,159.623 151.559 L 162.247 150.000 187.195 150.000 C 202.254 150.000,212.630 149.846,213.372 149.611 C 214.047 149.397,215.950 148.836,217.600 148.363 C 224.457 146.402,234.002 141.315,236.956 138.049 C 237.829 137.084,237.754 91.765,236.877 89.555 C 236.228 87.923,235.695 87.847,223.732 87.687 L 212.464 87.536 212.313 76.268 C 212.230 70.070,212.011 64.671,211.826 64.269 C 211.257 63.030,210.077 62.877,198.720 62.578 L 187.712 62.288 187.422 51.280 C 187.123 39.928,186.972 38.757,185.731 38.155 C 185.024 37.812,93.117 37.548,90.542 37.881 " stroke="none" fill="#fcfc04" fill-rule="evenodd"></path><path id="path2" d="M329.000 138.013 C 335.492 138.442,336.175 138.875,336.828 142.972 C 337.134 144.889,337.146 144.842,337.063 142.107 C 336.938 138.002,336.162 137.596,328.600 137.679 L 324.600 137.723 329.000 138.013 M234.200 140.245 C 230.319 143.258,223.096 146.791,217.600 148.363 C 215.950 148.836,214.047 149.397,213.372 149.611 C 212.630 149.846,202.254 150.000,187.195 150.000 L 162.247 150.000 159.623 151.559 C 155.952 153.740,153.004 157.033,149.860 162.465 C 147.971 165.730,146.382 167.892,144.566 169.665 C 142.102 172.074,140.940 172.886,135.437 176.044 C 132.178 177.914,128.825 181.091,126.748 184.279 L 125.000 186.960 124.784 200.580 L 124.567 214.200 123.115 218.498 C 121.184 224.216,118.162 230.401,115.726 233.623 C 113.851 236.102,112.457 238.236,113.730 236.679 C 114.179 236.129,114.376 236.082,114.560 236.479 C 114.749 236.889,114.850 236.894,115.033 236.500 C 115.162 236.225,115.522 236.000,115.833 236.000 C 116.145 236.000,116.400 235.820,116.400 235.600 C 116.400 235.380,116.579 235.200,116.797 235.200 C 117.201 235.200,118.580 234.119,120.241 232.500 C 120.748 232.005,121.442 231.600,121.782 231.600 C 122.122 231.600,122.400 231.352,122.400 231.049 C 122.400 230.746,122.668 230.276,122.996 230.004 C 123.323 229.732,123.474 229.319,123.330 229.087 C 123.166 228.821,123.323 228.762,123.755 228.927 C 124.133 229.072,124.344 229.033,124.225 228.841 C 124.106 228.648,124.266 228.277,124.581 228.016 C 124.895 227.755,125.054 227.285,124.933 226.971 C 124.813 226.657,124.899 226.400,125.124 226.400 C 125.349 226.400,125.624 226.625,125.735 226.900 C 125.846 227.175,125.951 226.986,125.968 226.480 C 125.986 225.974,126.284 225.012,126.631 224.341 C 126.977 223.670,127.333 222.748,127.421 222.290 C 127.509 221.833,127.774 221.340,128.010 221.194 C 128.246 221.048,128.352 220.450,128.246 219.864 C 128.140 219.279,128.221 218.800,128.426 218.800 C 128.632 218.800,128.800 218.440,128.800 218.000 C 128.800 217.560,128.973 217.200,129.184 217.200 C 129.395 217.200,129.583 216.705,129.603 216.100 C 129.622 215.495,129.764 208.790,129.919 201.200 C 130.192 187.803,130.226 187.364,131.090 186.152 C 132.748 183.828,136.637 180.571,138.639 179.829 C 147.372 176.595,152.065 171.953,154.640 164.000 C 155.221 162.205,155.959 161.192,158.648 158.500 L 161.943 155.200 187.891 155.200 C 206.473 155.200,213.967 155.073,214.287 154.753 C 214.533 154.507,215.694 154.239,216.867 154.158 C 218.040 154.076,219.180 153.782,219.400 153.505 C 219.620 153.227,219.980 152.990,220.200 152.977 C 220.420 152.965,221.140 152.715,221.800 152.423 C 222.888 151.942,224.184 151.620,225.482 151.508 C 225.748 151.485,225.872 151.317,225.759 151.133 C 225.645 150.950,225.767 150.800,226.030 150.800 C 226.292 150.800,226.954 150.305,227.500 149.700 C 228.047 149.095,228.369 148.870,228.217 149.200 C 228.064 149.530,228.313 149.375,228.770 148.856 C 229.226 148.336,229.600 148.124,229.600 148.384 C 229.600 148.682,229.833 148.624,230.229 148.229 C 230.574 147.883,231.024 147.600,231.229 147.600 C 231.433 147.600,231.579 147.465,231.553 147.300 C 231.396 146.311,231.700 145.667,232.411 145.481 C 232.858 145.364,233.173 145.115,233.111 144.927 C 233.050 144.739,233.399 144.156,233.886 143.632 C 234.374 143.108,234.678 142.526,234.563 142.339 C 234.447 142.153,234.547 142.000,234.785 142.000 C 235.023 142.000,235.435 141.505,235.700 140.900 C 235.966 140.295,236.355 139.679,236.564 139.532 C 236.858 139.324,237.341 137.884,237.065 138.035 C 237.029 138.055,235.740 139.049,234.200 140.245 M337.384 156.300 L 337.400 162.600 343.700 162.616 L 350.001 162.631 343.811 162.506 L 337.620 162.380 337.494 156.189 L 337.369 149.999 337.384 156.300 M357.028 163.172 C 361.125 163.825,361.558 164.508,361.987 171.000 L 362.277 175.400 362.321 171.400 C 362.404 163.838,361.998 163.062,357.893 162.937 C 355.158 162.854,355.111 162.866,357.028 163.172 M112.590 268.600 C 112.591 285.980,112.640 293.032,112.700 284.270 C 112.760 275.509,112.760 261.289,112.700 252.670 C 112.640 244.052,112.590 251.220,112.590 268.600 M361.923 304.361 C 361.651 310.964,361.048 311.564,354.204 312.032 L 349.800 312.334 355.124 312.231 C 362.232 312.095,362.064 312.258,362.318 305.224 C 362.421 302.351,362.415 300.000,362.304 300.000 C 362.194 300.000,362.022 301.962,361.923 304.361 M112.937 307.893 C 113.062 311.998,113.838 312.404,121.400 312.321 L 125.400 312.277 121.000 311.987 C 114.508 311.558,113.825 311.125,113.172 307.028 C 112.866 305.111,112.854 305.158,112.937 307.893 M337.363 318.800 C 337.363 322.430,337.423 323.915,337.498 322.100 C 337.572 320.285,337.572 317.315,337.498 315.500 C 337.423 313.685,337.363 315.170,337.363 318.800 M137.679 328.600 C 137.596 336.162,138.002 336.938,142.107 337.063 C 144.842 337.146,144.889 337.134,142.972 336.828 C 138.875 336.175,138.442 335.492,138.013 329.000 L 137.723 324.600 137.679 328.600 M336.678 332.269 C 336.365 335.300,335.373 336.291,332.187 336.755 L 329.800 337.102 332.518 337.151 C 336.299 337.219,337.200 336.347,337.200 332.618 C 337.200 329.398,336.989 329.257,336.678 332.269 M193.700 337.500 C 217.845 337.557,257.355 337.557,281.500 337.500 C 305.645 337.443,285.890 337.396,237.600 337.396 C 189.310 337.396,169.555 337.443,193.700 337.500 " stroke="none" fill="#d4ece8" fill-rule="evenodd"></path><path id="path3" d="M329.000 138.013 C 335.492 138.442,336.175 138.875,336.828 142.972 C 337.134 144.889,337.146 144.842,337.063 142.107 C 336.938 138.002,336.162 137.596,328.600 137.679 L 324.600 137.723 329.000 138.013 M234.200 140.245 C 230.319 143.258,223.096 146.791,217.600 148.363 C 215.950 148.836,214.047 149.397,213.372 149.611 C 212.630 149.846,202.254 150.000,187.195 150.000 L 162.247 150.000 159.623 151.559 C 155.952 153.740,153.004 157.033,149.860 162.465 C 147.971 165.730,146.382 167.892,144.566 169.665 C 142.102 172.074,140.940 172.886,135.437 176.044 C 132.178 177.914,128.825 181.091,126.748 184.279 L 125.000 186.960 124.784 200.580 L 124.567 214.200 123.115 218.498 C 121.184 224.216,118.162 230.401,115.726 233.623 C 113.851 236.102,112.457 238.236,113.730 236.679 C 114.179 236.129,114.376 236.082,114.560 236.479 C 114.749 236.889,114.850 236.894,115.033 236.500 C 115.162 236.225,115.522 236.000,115.833 236.000 C 116.145 236.000,116.400 235.820,116.400 235.600 C 116.400 235.380,116.579 235.200,116.797 235.200 C 117.201 235.200,118.580 234.119,120.241 232.500 C 120.748 232.005,121.442 231.600,121.782 231.600 C 122.122 231.600,122.400 231.352,122.400 231.049 C 122.400 230.746,122.668 230.276,122.996 230.004 C 123.323 229.732,123.474 229.319,123.330 229.087 C 123.166 228.821,123.323 228.762,123.755 228.927 C 124.133 229.072,124.344 229.033,124.225 228.841 C 124.106 228.648,124.266 228.277,124.581 228.016 C 124.895 227.755,125.054 227.285,124.933 226.971 C 124.813 226.657,124.899 226.400,125.124 226.400 C 125.349 226.400,125.624 226.625,125.735 226.900 C 125.846 227.175,125.951 226.986,125.968 226.480 C 125.986 225.974,126.284 225.012,126.631 224.341 C 126.977 223.670,127.333 222.748,127.421 222.290 C 127.509 221.833,127.774 221.340,128.010 221.194 C 128.246 221.048,128.352 220.450,128.246 219.864 C 128.140 219.279,128.221 218.800,128.426 218.800 C 128.632 218.800,128.800 218.440,128.800 218.000 C 128.800 217.560,128.973 217.200,129.184 217.200 C 129.395 217.200,129.583 216.705,129.603 216.100 C 129.622 215.495,129.764 208.790,129.919 201.200 C 130.192 187.803,130.226 187.364,131.090 186.152 C 132.748 183.828,136.637 180.571,138.639 179.829 C 147.372 176.595,152.065 171.953,154.640 164.000 C 155.221 162.205,155.959 161.192,158.648 158.500 L 161.943 155.200 187.891 155.200 C 206.473 155.200,213.967 155.073,214.287 154.753 C 214.533 154.507,215.694 154.239,216.867 154.158 C 218.040 154.076,219.180 153.782,219.400 153.505 C 219.620 153.227,219.980 152.990,220.200 152.977 C 220.420 152.965,221.140 152.715,221.800 152.423 C 222.888 151.942,224.184 151.620,225.482 151.508 C 225.748 151.485,225.872 151.317,225.759 151.133 C 225.645 150.950,225.767 150.800,226.030 150.800 C 226.292 150.800,226.954 150.305,227.500 149.700 C 228.047 149.095,228.369 148.870,228.217 149.200 C 228.064 149.530,228.313 149.375,228.770 148.856 C 229.226 148.336,229.600 148.124,229.600 148.384 C 229.600 148.682,229.833 148.624,230.229 148.229 C 230.574 147.883,231.024 147.600,231.229 147.600 C 231.433 147.600,231.579 147.465,231.553 147.300 C 231.396 146.311,231.700 145.667,232.411 145.481 C 232.858 145.364,233.173 145.115,233.111 144.927 C 233.050 144.739,233.399 144.156,233.886 143.632 C 234.374 143.108,234.678 142.526,234.563 142.339 C 234.447 142.153,234.547 142.000,234.785 142.000 C 235.023 142.000,235.435 141.505,235.700 140.900 C 235.966 140.295,236.355 139.679,236.564 139.532 C 236.858 139.324,237.341 137.884,237.065 138.035 C 237.029 138.055,235.740 139.049,234.200 140.245 M337.384 156.300 L 337.400 162.600 343.700 162.616 L 350.001 162.631 343.811 162.506 L 337.620 162.380 337.494 156.189 L 337.369 149.999 337.384 156.300 M357.028 163.172 C 361.125 163.825,361.558 164.508,361.987 171.000 L 362.277 175.400 362.321 171.400 C 362.404 163.838,361.998 163.062,357.893 162.937 C 355.158 162.854,355.111 162.866,357.028 163.172 M112.590 268.600 C 112.591 285.980,112.640 293.032,112.700 284.270 C 112.760 275.509,112.760 261.289,112.700 252.670 C 112.640 244.052,112.590 251.220,112.590 268.600 M361.923 304.361 C 361.651 310.964,361.048 311.564,354.204 312.032 L 349.800 312.334 355.124 312.231 C 362.232 312.095,362.064 312.258,362.318 305.224 C 362.421 302.351,362.415 300.000,362.304 300.000 C 362.194 300.000,362.022 301.962,361.923 304.361 M112.937 307.893 C 113.062 311.998,113.838 312.404,121.400 312.321 L 125.400 312.277 121.000 311.987 C 114.508 311.558,113.825 311.125,113.172 307.028 C 112.866 305.111,112.854 305.158,112.937 307.893 M337.363 318.800 C 337.363 322.430,337.423 323.915,337.498 322.100 C 337.572 320.285,337.572 317.315,337.498 315.500 C 337.423 313.685,337.363 315.170,337.363 318.800 M137.679 328.600 C 137.596 336.162,138.002 336.938,142.107 337.063 C 144.842 337.146,144.889 337.134,142.972 336.828 C 138.875 336.175,138.442 335.492,138.013 329.000 L 137.723 324.600 137.679 328.600 M336.678 332.269 C 336.365 335.300,335.373 336.291,332.187 336.755 L 329.800 337.102 332.518 337.151 C 336.299 337.219,337.200 336.347,337.200 332.618 C 337.200 329.398,336.989 329.257,336.678 332.269 M193.700 337.500 C 217.845 337.557,257.355 337.557,281.500 337.500 C 305.645 337.443,285.890 337.396,237.600 337.396 C 189.310 337.396,169.555 337.443,193.700 337.500 " stroke="none" fill="#d4ece8" fill-rule="evenodd"></path><path id="path4" d="M329.000 138.013 C 335.492 138.442,336.175 138.875,336.828 142.972 C 337.134 144.889,337.146 144.842,337.063 142.107 C 336.938 138.002,336.162 137.596,328.600 137.679 L 324.600 137.723 329.000 138.013 M234.200 140.245 C 230.319 143.258,223.096 146.791,217.600 148.363 C 215.950 148.836,214.047 149.397,213.372 149.611 C 212.630 149.846,202.254 150.000,187.195 150.000 L 162.247 150.000 159.623 151.559 C 155.952 153.740,153.004 157.033,149.860 162.465 C 147.971 165.730,146.382 167.892,144.566 169.665 C 142.102 172.074,140.940 172.886,135.437 176.044 C 132.178 177.914,128.825 181.091,126.748 184.279 L 125.000 186.960 124.784 200.580 L 124.567 214.200 123.115 218.498 C 121.184 224.216,118.162 230.401,115.726 233.623 C 113.851 236.102,112.457 238.236,113.730 236.679 C 114.179 236.129,114.376 236.082,114.560 236.479 C 114.749 236.889,114.850 236.894,115.033 236.500 C 115.162 236.225,115.522 236.000,115.833 236.000 C 116.145 236.000,116.400 235.820,116.400 235.600 C 116.400 235.380,116.579 235.200,116.797 235.200 C 117.201 235.200,118.580 234.119,120.241 232.500 C 120.748 232.005,121.442 231.600,121.782 231.600 C 122.122 231.600,122.400 231.352,122.400 231.049 C 122.400 230.746,122.668 230.276,122.996 230.004 C 123.323 229.732,123.474 229.319,123.330 229.087 C 123.166 228.821,123.323 228.762,123.755 228.927 C 124.133 229.072,124.344 229.033,124.225 228.841 C 124.106 228.648,124.266 228.277,124.581 228.016 C 124.895 227.755,125.054 227.285,124.933 226.971 C 124.813 226.657,124.899 226.400,125.124 226.400 C 125.349 226.400,125.624 226.625,125.735 226.900 C 125.846 227.175,125.951 226.986,125.968 226.480 C 125.986 225.974,126.284 225.012,126.631 224.341 C 126.977 223.670,127.333 222.748,127.421 222.290 C 127.509 221.833,127.774 221.340,128.010 221.194 C 128.246 221.048,128.352 220.450,128.246 219.864 C 128.140 219.279,128.221 218.800,128.426 218.800 C 128.632 218.800,128.800 218.440,128.800 218.000 C 128.800 217.560,128.973 217.200,129.184 217.200 C 129.395 217.200,129.583 216.705,129.603 216.100 C 129.622 215.495,129.764 208.790,129.919 201.200 C 130.192 187.803,130.226 187.364,131.090 186.152 C 132.748 183.828,136.637 180.571,138.639 179.829 C 147.372 176.595,152.065 171.953,154.640 164.000 C 155.221 162.205,155.959 161.192,158.648 158.500 L 161.943 155.200 187.891 155.200 C 206.473 155.200,213.967 155.073,214.287 154.753 C 214.533 154.507,215.694 154.239,216.867 154.158 C 218.040 154.076,219.180 153.782,219.400 153.505 C 219.620 153.227,219.980 152.990,220.200 152.977 C 220.420 152.965,221.140 152.715,221.800 152.423 C 222.888 151.942,224.184 151.620,225.482 151.508 C 225.748 151.485,225.872 151.317,225.759 151.133 C 225.645 150.950,225.767 150.800,226.030 150.800 C 226.292 150.800,226.954 150.305,227.500 149.700 C 228.047 149.095,228.369 148.870,228.217 149.200 C 228.064 149.530,228.313 149.375,228.770 148.856 C 229.226 148.336,229.600 148.124,229.600 148.384 C 229.600 148.682,229.833 148.624,230.229 148.229 C 230.574 147.883,231.024 147.600,231.229 147.600 C 231.433 147.600,231.579 147.465,231.553 147.300 C 231.396 146.311,231.700 145.667,232.411 145.481 C 232.858 145.364,233.173 145.115,233.111 144.927 C 233.050 144.739,233.399 144.156,233.886 143.632 C 234.374 143.108,234.678 142.526,234.563 142.339 C 234.447 142.153,234.547 142.000,234.785 142.000 C 235.023 142.000,235.435 141.505,235.700 140.900 C 235.966 140.295,236.355 139.679,236.564 139.532 C 236.858 139.324,237.341 137.884,237.065 138.035 C 237.029 138.055,235.740 139.049,234.200 140.245 M337.384 156.300 L 337.400 162.600 343.700 162.616 L 350.001 162.631 343.811 162.506 L 337.620 162.380 337.494 156.189 L 337.369 149.999 337.384 156.300 M357.028 163.172 C 361.125 163.825,361.558 164.508,361.987 171.000 L 362.277 175.400 362.321 171.400 C 362.404 163.838,361.998 163.062,357.893 162.937 C 355.158 162.854,355.111 162.866,357.028 163.172 M112.590 268.600 C 112.591 285.980,112.640 293.032,112.700 284.270 C 112.760 275.509,112.760 261.289,112.700 252.670 C 112.640 244.052,112.590 251.220,112.590 268.600 M361.923 304.361 C 361.651 310.964,361.048 311.564,354.204 312.032 L 349.800 312.334 355.124 312.231 C 362.232 312.095,362.064 312.258,362.318 305.224 C 362.421 302.351,362.415 300.000,362.304 300.000 C 362.194 300.000,362.022 301.962,361.923 304.361 M112.937 307.893 C 113.062 311.998,113.838 312.404,121.400 312.321 L 125.400 312.277 121.000 311.987 C 114.508 311.558,113.825 311.125,113.172 307.028 C 112.866 305.111,112.854 305.158,112.937 307.893 M337.363 318.800 C 337.363 322.430,337.423 323.915,337.498 322.100 C 337.572 320.285,337.572 317.315,337.498 315.500 C 337.423 313.685,337.363 315.170,337.363 318.800 M137.679 328.600 C 137.596 336.162,138.002 336.938,142.107 337.063 C 144.842 337.146,144.889 337.134,142.972 336.828 C 138.875 336.175,138.442 335.492,138.013 329.000 L 137.723 324.600 137.679 328.600 M336.678 332.269 C 336.365 335.300,335.373 336.291,332.187 336.755 L 329.800 337.102 332.518 337.151 C 336.299 337.219,337.200 336.347,337.200 332.618 C 337.200 329.398,336.989 329.257,336.678 332.269 M193.700 337.500 C 217.845 337.557,257.355 337.557,281.500 337.500 C 305.645 337.443,285.890 337.396,237.600 337.396 C 189.310 337.396,169.555 337.443,193.700 337.500 " stroke="none" fill="#d4ece8" fill-rule="evenodd"></path></g></svg>